<?xml version="1.0" encoding="UTF-8" standalone="no"?>
<svg
   width="244.00002"
   height="296"
   viewBox="0 0 244.00002 291.74713"
   fill="none"
   version="1.1"
   id="svg226"
   sodipodi:docname="asimov.svg"
   inkscape:version="1.4 (e7c3feb100, 2024-10-09)"
   xml:space="preserve"
   inkscape:export-filename="../Documents/localsend_rs/assets/icon/logo_128.png"
   inkscape:export-xdpi="50.360653"
   inkscape:export-ydpi="50.360653"
   xmlns:inkscape="http://www.inkscape.org/namespaces/inkscape"
   xmlns:sodipodi="http://sodipodi.sourceforge.net/DTD/sodipodi-0.dtd"
   xmlns="http://www.w3.org/2000/svg"
   xmlns:svg="http://www.w3.org/2000/svg"><sodipodi:namedview
     id="namedview228"
     pagecolor="#ffffff"
     bordercolor="#000000"
     borderopacity="0.25"
     inkscape:showpageshadow="2"
     inkscape:pageopacity="0.0"
     inkscape:pagecheckerboard="0"
     inkscape:deskcolor="#d1d1d1"
     showgrid="false"
     inkscape:zoom="1.7442834"
     inkscape:cx="271.17153"
     inkscape:cy="152.49815"
     inkscape:window-width="1908"
     inkscape:window-height="1028"
     inkscape:window-x="0"
     inkscape:window-y="0"
     inkscape:window-maximized="1"
     inkscape:current-layer="svg226"><inkscape:page
       x="0"
       y="0"
       width="244.00002"
       height="291.74713"
       id="page2"
       margin="0"
       bleed="0" /></sodipodi:namedview><path
     d="M 220,2.5000001 H 24 C 10.745,2.5000001 -1.8079318e-7,13.245201 -1.8079318e-7,26.500001 V 269.5 C -1.8079318e-7,282.755 10.745,293.5 24,293.5 h 196 c 13.255,0 24,-10.745 24,-24 V 26.500001 C 244,13.245201 233.255,2.5000001 220,2.5000001 Z"
     fill="#613583"
     id="path132"
     style="fill:#7800d5;fill-opacity:1" /><path
     d="M 220,-2.4999999 H 24 C 10.745,-2.4999999 -1.8079318e-7,8.2452001 -1.8079318e-7,21.500001 V 254.5 C -1.8079318e-7,267.755 10.745,278.5 24,278.5 h 196 c 13.255,0 24,-10.745 24,-24 V 21.500001 C 244,8.2452001 233.255,-2.4999999 220,-2.4999999 Z"
     fill="#813d9c"
     id="path134"
     style="fill:#2f2f2f;fill-opacity:1" /><defs
     id="defs224"><linearGradient
       id="linearGradient3107"
       inkscape:swatch="solid"><stop
         style="stop-color:#000000;stop-opacity:1;"
         offset="0"
         id="stop3105" /></linearGradient></defs><rect
     style="fill:#7800d5;fill-opacity:1;stroke:#7800d5;stroke-width:0.93801;stroke-opacity:0"
     id="rect2"
     width="37.549221"
     height="207.46121"
     x="152.91467"
     y="74.697945" /><path
     sodipodi:type="star"
     style="fill:#7800d5;fill-opacity:1;stroke:#7800d5;stroke-opacity:0"
     id="path22-6"
     inkscape:flatsided="true"
     sodipodi:sides="3"
     sodipodi:cx="224.17805"
     sodipodi:cy="196.54417"
     sodipodi:r1="53.11166"
     sodipodi:r2="26.55583"
     sodipodi:arg1="1.5860623"
     sodipodi:arg2="2.6332599"
     inkscape:rounded="0"
     inkscape:randomized="0"
     d="m 223.36729,249.64965 -44.77454,-80.36036 91.98138,1.4043 z"
     inkscape:transform-center-x="-0.068420494"
     inkscape:transform-center-y="-13.218621"
     transform="rotate(178.97769,198.66266,135.4646)" /></svg>
